<?xml version="1.0" encoding="UTF-8"?>
<svg version="1.1" xmlns="http://www.w3.org/2000/svg" width="500" height="500">
<path d="M0 0 C165 0 330 0 500 0 C500 165 500 330 500 500 C335 500 170 500 0 500 C0 335 0 170 0 0 Z " fill="#FEFEFE" transform="translate(0,0)"/>
<path d="M0 0 C1.19625 0.00386719 2.3925 0.00773437 3.625 0.01171875 C6.83915693 0.29816561 9.10539759 0.93646741 12 2.3125 C12 2.9725 12 3.6325 12 4.3125 C12.7425 4.51875 13.485 4.725 14.25 4.9375 C17.85312998 6.73906499 19.05168033 8.83335773 21 12.3125 C22.01110856 15.45817108 22.16442658 18.3926154 22.1875 21.6875 C22.20167969 22.60273437 22.21585937 23.51796875 22.23046875 24.4609375 C22 27.3125 22 27.3125 21.109375 29.9609375 C19.2208449 35.66642633 18.52880039 41.62653456 17.58789062 47.55078125 C16.81305347 52.23684821 15.94287681 56.74140035 14.49609375 61.26953125 C12.68290064 67.00303392 11.85330054 72.80943737 11 78.75 C9.84014603 86.79525826 8.32505682 94.51677823 6 102.3125 C5.34 102.3125 4.68 102.3125 4 102.3125 C3.81824219 103.96185547 3.81824219 103.96185547 3.6328125 105.64453125 C2.70043015 113.92997723 1.66037859 122.13425226 0 130.3125 C-0.66 130.3125 -1.32 130.3125 -2 130.3125 C-2.05607422 131.43785156 -2.05607422 131.43785156 -2.11328125 132.5859375 C-2.43082524 137.52966159 -2.7827062 142.16481153 -4.375 146.875 C-6.31319221 152.66121284 -7.07312933 158.60063643 -7.90966797 164.62524414 C-8.79907439 170.81134963 -8.79907439 170.81134963 -10.01171875 173.8359375 C-11.4724513 177.49642933 -11.75946968 181.23141559 -12.25 185.125 C-13.75853196 196.111048 -16.43106584 206.71442333 -19.24414062 217.42773438 C-21.27746262 225.18798394 -23.23024702 232.8880871 -24.5 240.8125 C-25.49379911 246.72139817 -26.72296884 252.48720983 -28.25 258.28515625 C-29.11981513 261.79612877 -29.81335962 265.32378178 -30.5 268.875 C-34.41791965 288.50478204 -34.41791965 288.50478204 -43.125 296.1875 C-48.40923662 299.35804197 -55.06697543 298.84631969 -61 298.3125 C-67.13184661 296.62165858 -71.62072921 292.6444982 -75 287.3125 C-76.22476883 283.89488159 -76.13340215 280.54202198 -76.125 276.9375 C-76.12757813 275.83664062 -76.13015625 274.73578125 -76.1328125 273.6015625 C-76.00444337 270.42253884 -75.59426995 267.43477545 -75 264.3125 C-74.34 264.3125 -73.68 264.3125 -73 264.3125 C-72.92523438 263.39855469 -72.85046875 262.48460937 -72.7734375 261.54296875 C-71.25361063 245.42039721 -67.39753121 229.68174457 -63.40234375 214.015625 C-62.21942171 209.3236892 -61.27016643 204.64979885 -60.5 199.875 C-59.13871284 191.85675169 -57.40884856 183.97515427 -55.44482422 176.08105469 C-52.6295701 164.76096105 -50.19062318 153.47408648 -48.34399414 141.95166016 C-47.57127794 137.2062341 -46.57055805 132.86841634 -45 128.3125 C-44.46642452 125.09128509 -44.0617467 121.8689224 -43.66015625 118.62890625 C-43.04861623 115.55673183 -42.04987578 113.07577711 -40.76000977 110.23901367 C-39.29385356 106.52252197 -38.66939777 102.60216302 -37.9375 98.6875 C-37.68045288 97.36516357 -37.68045288 97.36516357 -37.41821289 96.01611328 C-36.47394245 91.08717468 -35.64733922 86.15637451 -34.9375 81.1875 C-34.28133858 76.64041645 -33.19506664 72.50740638 -31.77734375 68.1484375 C-30.78714477 64.53595278 -30.21631805 60.8807602 -29.625 57.1875 C-28.58062646 50.76319143 -27.00643226 44.78429308 -24.90234375 38.63232422 C-23.6239948 34.75257321 -22.70562417 30.95461537 -22.03515625 26.921875 C-21.88038818 25.99213867 -21.72562012 25.06240234 -21.56616211 24.10449219 C-21.28046378 22.29638696 -21.01800685 20.48439287 -20.78344727 18.66894531 C-19.53290897 10.72829389 -15.70568324 6.24809594 -9.5 1.33203125 C-6.219192 -0.00592326 -3.53493607 -0.04951958 0 0 Z " fill="#57B5E6" transform="translate(269,70.6875)"/>
<path d="M0 0 C2.16726918 2.10352597 2.80849428 3.10844663 3.125 6.0625 C3.785 6.0625 4.445 6.0625 5.125 6.0625 C8.34136233 15.71158699 6.38388099 27.7018844 3.125 37.0625 C-0.22906383 47.15229695 -2.42269188 57.249738 -4.40307617 67.67553711 C-5.024308 70.81769105 -5.73157219 73.93800752 -6.4375 77.06201172 C-6.97711016 79.52940328 -7.40425939 82.00778825 -7.8125 84.5 C-8.43455524 88.01849993 -9.21729023 91.35028635 -10.3125 94.75 C-11.94116573 99.87453915 -12.88450839 105.06255705 -13.78491211 110.35424805 C-14.29131615 113.26005122 -14.85464949 116.00499127 -15.83984375 118.7890625 C-17.75520973 124.84595569 -18.42091448 131.20401626 -19.375 137.47265625 C-19.54 138.51550781 -19.705 139.55835938 -19.875 140.6328125 C-20.019375 141.57914551 -20.16375 142.52547852 -20.3125 143.50048828 C-20.86042424 145.99611195 -21.71266183 147.80760433 -22.875 150.0625 C-23.36014194 152.0129299 -23.36014194 152.0129299 -23.62109375 154.0390625 C-23.73469238 154.78768555 -23.84829102 155.53630859 -23.96533203 156.30761719 C-24.07989746 157.09297852 -24.19446289 157.87833984 -24.3125 158.6875 C-25.2361935 164.64919664 -26.34877019 170.32867367 -28.24609375 176.0703125 C-29.07507783 178.69628691 -29.51629316 181.33632804 -29.875 184.0625 C-30.535 184.0625 -31.195 184.0625 -31.875 184.0625 C-32.1225 184.949375 -32.37 185.83625 -32.625 186.75 C-34.41330261 191.48900192 -36.67434503 194.26206335 -40.875 197.0625 C-47.6232139 199.1074133 -55.55731102 198.94173013 -62.0546875 196.1796875 C-66.53613548 193.42927093 -69.92985456 188.91204069 -71.875 184.0625 C-73.28376438 171.71294216 -70.50218299 158.57203973 -66.62890625 146.87109375 C-65.3463828 142.09319551 -64.67857345 137.1962857 -63.96484375 132.30493164 C-63.7946875 131.18332642 -63.7946875 131.18332642 -63.62109375 130.0390625 C-63.52497803 129.36955566 -63.4288623 128.70004883 -63.32983398 128.01025391 C-62.81611253 125.81032383 -61.88407945 124.07846684 -60.875 122.0625 C-60.31450042 119.96644737 -60.31450042 119.96644737 -59.9453125 117.75390625 C-59.78933594 116.92310547 -59.63335937 116.09230469 -59.47265625 115.23632812 C-59.16396131 113.53085236 -58.85660992 111.82513271 -58.55078125 110.11914062 C-57.62970178 105.22543789 -56.4409175 100.56954495 -54.8984375 95.83203125 C-52.64198804 88.71106245 -51.4741541 81.56320306 -50.375 74.1875 C-49.03459183 65.24836417 -47.31894776 56.64303197 -44.89648438 47.93261719 C-43.79418446 43.87433794 -42.92611965 39.78115129 -42.09375 35.66015625 C-41.95102661 34.95836243 -41.80830322 34.2565686 -41.66125488 33.5335083 C-41.08209318 30.67093308 -40.50850562 27.80740443 -39.94775391 24.94116211 C-36.04048785 5.07291472 -36.04048785 5.07291472 -28.875 -0.875 C-28.215 -1.44089844 -27.555 -2.00679688 -26.875 -2.58984375 C-18.61555419 -8.15529063 -7.55872101 -5.09392068 0 0 Z " fill="#57B5E6" transform="translate(221.875,98.9375)"/>
<path d="M0 0 C1.67578125 1.52734375 1.67578125 1.52734375 3 3 C3.474375 3.4125 3.94875 3.825 4.4375 4.25 C9.34591095 9.74742027 10.44217433 13.83217947 10.140625 21.05859375 C10.09421875 21.69925781 10.0478125 22.33992188 10 23 C9.34 23 8.68 23 8 23 C7.92652344 24.25103516 7.92652344 24.25103516 7.8515625 25.52734375 C7.32380677 33.47097747 6.2581671 40.75368603 4 48.375 C3.17170844 51.37755689 2.58229818 54.24955702 2.0625 57.3125 C1.43129609 60.96056038 0.62790577 64.41208599 -0.5 67.9375 C-2.26153001 73.54075878 -3.13165307 79.20120862 -4 85 C-5.00324688 91.69964869 -6.20464608 98.07455324 -8.26953125 104.53125 C-9.48067511 108.62452764 -10.24095985 112.80295444 -11 117 C-11.66 117 -12.32 117 -13 117 C-12.95552734 118.45986328 -12.95552734 118.45986328 -12.91015625 119.94921875 C-12.91126119 124.33693524 -13.63516532 128.50974706 -14.4375 132.8125 C-14.57220703 133.57498047 -14.70691406 134.33746094 -14.84570312 135.12304688 C-15.86028519 140.72057039 -15.86028519 140.72057039 -17 143 C-17.66 143 -18.32 143 -19 143 C-19.66 144.65 -20.32 146.3 -21 148 C-21.66 148 -22.32 148 -23 148 C-23 148.66 -23 149.32 -23 150 C-30.25389968 154.37971301 -36.41026475 155.35923059 -44.71484375 153.33984375 C-49.63281251 151.63149671 -53.84366818 149.44433745 -57.00390625 145.21875 C-60.74038967 136.89591634 -57.49845736 126.24519172 -55.72265625 117.6640625 C-55.15532863 114.78755813 -54.74198043 112.03906225 -54.5 109.125 C-54.2164534 106.09105134 -53.57524473 103.45731771 -52.625 100.5625 C-50.81296235 94.94960288 -49.95740161 89.23904433 -49.09033203 83.42016602 C-48.42559464 79.07862937 -47.43522742 75.16552334 -46 71 C-45.48787862 68.61099398 -45.01047615 66.21436083 -44.5625 63.8125 C-43.73170569 59.46360525 -42.82685019 55.18406749 -41.5625 50.9375 C-39.97753755 45.42315147 -39.04483855 39.83251438 -38.0625 34.1875 C-33.27513745 7.39983643 -33.27513745 7.39983643 -24 0 C-16.27691416 -4.5602983 -7.92478575 -3.7320212 0 0 Z " fill="#58B5E6" transform="translate(320,170)"/>
<path d="M0 0 C0.33 0 0.66 0 1 0 C1.16295372 4.88861161 1.23833722 7.65499246 -1 12 C-1.42663286 13.73813388 -1.80076859 15.48988665 -2.125 17.25 C-2.29257812 18.14203125 -2.46015625 19.0340625 -2.6328125 19.953125 C-2.75398438 20.62859375 -2.87515625 21.3040625 -3 22 C-5.29403245 15.05282373 -2.10377338 6.76212871 0 0 Z " fill="#A8D8F2" transform="translate(286,186)"/>
</svg>
